<svg xmlns="http://www.w3.org/2000/svg" viewBox="0 0 448 512"><path fill="currentColor" d="M220.8 123.3c1 .5 1.8 1.7 3 1.7 1.1 0 2.8-.4 2.9-1.5.2-1.4-1.9-2.3-3.2-2.9-1.7-.7-3.9-1-5.5-.1-.4.2-.8.7-.6 1.1.3 1.3 2.3 1.1 3.4 1.7zm-21.9 1.7c1.2 0 2-1.2 3-1.7 1.1-.6 3.1-.4 3.5-1.6.2-.4-.2-.9-.6-1.1-1.6-.9-3.8-.6-5.5.1-1.3.6-3.4 1.5-3.2 2.9.1 1 1.8 1.5 2.8 1.4zM420 403.8c-3.6-4-5.3-11.6-7.2-19.7-1.8-8.1-3.9-16.8-10.5-22.4-1.3-1.1-2.6-2.1-4-2.9-1.3-.8-2.7-1.5-4.1-2 9.2-27.3 5.6-54.5-3.7-79.1-11.4-30.1-31.3-56.4-46.5-74.4-17.1-21.5-33.7-41.9-33.4-72C311.1 85.4 315.7.1 234.8 0 132.4-.2 158 103.4 156.9 135.2c-1.7 23.4-6.4 41.8-22.5 64.7-18.9 22.5-45.5 58.8-58.1 96.7-6 17.9-8.8 36.1-6.2 53.3-6.5 5.8-11.4 14.7-16.6 20.2-4.2 4.3-10.3 5.9-17 8.3s-14 6-18.5 14.5c-2.1 3.9-2.8 8.1-2.8 12.4 0 3.9.6 7.9 1.2 11.8 1.2 8.1 2.6 15.7.8 20.8-5.2 14.4-5.9 24.4-2.2 31.7 3.8 7.3 11.4 10.5 20.1 12.3 17.3 3.6 40.8 2.7 59.3 12.5 19.8 10.4 39.9 14.1 55.9 10.4 11.6-2.6 21.1-9.6 25.9-20.2 12.5-.1 26.3-5.4 48.3-6.6 14.9-1.2 33.6 5.3 55.1 4.1.6 2.3 1.4 4.6 2.5 6.7v.1c8.3 16.7 23.8 24.3 40.3 23 16.6-1.3 34.1-11 48.3-27.9 13.6-16.4 36-23.2 50.9-32.2 7.4-4.5 13.4-10.1 13.9-18.3.4-8.2-4.4-17.3-15.5-29.7zM223.7 87.3c9.8-22.2 34.2-21.8 44-.4 6.5 14.2 3.6 30.9-4.3 40.4-1.6-.8-5.9-2.6-12.6-4.9 1.1-1.2 3.1-2.7 3.9-4.6 4.8-11.8-.2-27-9.1-27.3-7.3-.5-13.9 10.8-11.8 23-4.1-2-9.4-3.5-13-4.4-1-6.9-.3-14.6 2.9-21.8zM183 75.8c10.1 0 20.8 14.2 19.1 33.5-3.5 1-7.1 2.5-10.2 4.6 1.2-8.9-3.3-20.1-9.6-19.6-8.4.7-9.8 21.2-1.8 28.1C175 127.5 164.2 137 157.5 156c-7.8-5.1-2.2-30.5-1.3-41.7.8-9.6 3.3-38.2 26.8-38.5zM144.6 242.5c1.4 2.8 2 5.8 2 9s-.7 6.3-2 9.2c-1.4 2.8-3.1 5.3-5.3 7.5-2.2 2.2-4.7 3.9-7.5 5.3s-6 2-9.2 2-6.3-.7-9.2-2c-2.8-1.4-5.3-3.1-7.5-5.3a36.1 36.1 0 0 1-5.3-7.5c-1.4-2.8-2-6-2-9.2s.7-6.3 2-9c1.4-2.8 3.1-5.3 5.3-7.5 2.2-2.2 4.7-3.9 7.5-5.3s6-2 9.2-2 6.3.7 9.2 2c2.8 1.4 5.3 3.1 7.5 5.3 2.1 2.2 3.8 4.8 5.3 7.5zm109.4 58.7c-7.2 14.3-6.4 14.5-25.1 24.2-4.2 2.2-8.3 4.6-14 4.6h-2.4c-5.7 0-9.8-2.4-14-4.6-18.7-9.7-17.9-9.9-25.1-24.2-7.5-14.5-10.4-30.1-5.1-45.2l.5-1.3c4.9-12.5 14.6-22.8 26.8-28.5h.1c3.1-1.4 6.4-2.5 9.7-3.4 3.3-.9 6.7-1.3 10.1-1.3 3.4 0 6.8.4 10.1 1.3 3.4.8 6.6 2 9.7 3.4h.1c12.2 5.6 21.9 16 26.8 28.5l.5 1.3c5.3 15.1 2.4 30.7-5.1 45.2h-.1c-.3.3-.3.7-.6 1zM287.4 251.5c-1.4-2.8-2-5.8-2-9s.7-6.3 2-9.2c1.4-2.8 3.1-5.3 5.3-7.5 2.2-2.2 4.7-3.9 7.5-5.3s6-2 9.2-2 6.3.7 9.2 2c2.8 1.4 5.3 3.1 7.5 5.3a36.1 36.1 0 0 1 5.3 7.5c1.4 2.8 2 6 2 9.2s-.7 6.3-2 9c-1.4 2.8-3.1 5.3-5.3 7.5-2.2 2.2-4.7 3.9-7.5 5.3s-6 2-9.2 2-6.3-.7-9.2-2c-2.8-1.4-5.3-3.1-7.5-5.3a36.1 36.1 0 0 1-5.3-7.5zm74.3-20.3c4.8 11.8-.2 27-9.1 27.3-7.3.5-13.9-10.8-11.8-23 4.1 2 9.4 3.5 13 4.4 1 6.9.3 14.6-2.9 21.8-9.8 22.2-34.2 21.8-44 .4-6.5-14.2-3.6-30.9 4.3-40.4 1.6.8 5.9 2.6 12.6 4.9-1.1 1.2-3.1 2.7-3.9 4.6z"/></svg>
